<svg width="100" height="100" viewBox="0 0 100 100" fill="none" xmlns="http://www.w3.org/2000/svg">
<path d="M40.9537 53.6732C41.2591 48.2246 43.9272 43.4243 47.9524 40.0215C51.8999 36.6791 57.213 34.6363 63.0102 34.6363C68.8017 34.6363 74.1149 36.6791 78.0651 40.0215C82.0875 43.4243 84.7556 48.2246 85.0639 53.6674C85.3693 59.2658 83.119 64.4666 79.1716 68.3218C75.1464 72.2433 69.4212 74.704 63.0102 74.704C56.5993 74.704 50.8626 72.2433 46.8403 68.3218C42.89 64.4666 40.6454 59.2658 40.9537 53.6732Z" fill="white"/>
<path d="M51.6956 54.1594C51.8524 51.3636 53.2214 48.9006 55.2867 47.1545C57.3122 45.4396 60.0384 44.3914 63.013 44.3914C65.9847 44.3914 68.7109 45.4396 70.7378 47.1545C72.8017 48.9006 74.1708 51.3636 74.329 54.1564C74.4857 57.029 73.331 59.6976 71.3056 61.6757C69.2402 63.6879 66.3025 64.9504 63.013 64.9504C59.7235 64.9504 56.78 63.6879 54.7161 61.6757C52.6891 59.6976 51.5374 57.029 51.6956 54.1594Z" fill="#265787"/>
<path d="M33.7285 59.9025C33.7478 60.9989 34.0975 63.1295 34.6219 64.7933C35.7242 68.3151 37.594 71.5731 40.1957 74.4444C42.8656 77.3958 46.1532 79.7663 49.9506 81.4494C53.942 83.217 58.2668 84.1178 62.759 84.1104C67.2438 84.1044 71.5686 83.1859 75.56 81.405C79.3573 79.7056 82.642 77.3247 85.3074 74.3718C87.9076 71.4886 89.7744 68.2247 90.8797 64.7029C91.4353 62.9235 91.7864 61.1175 91.9272 59.3055C92.065 57.5201 92.0072 55.7318 91.7538 53.945C91.259 50.4633 90.0545 47.1964 88.1995 44.2183C86.5031 41.4818 84.3162 39.0861 81.716 37.0696L81.7219 37.0652L55.4814 16.9169C55.4577 16.8992 55.4384 16.8799 55.4132 16.8636C53.6916 15.542 50.7965 15.5465 48.9031 16.871C46.9888 18.2104 46.7696 20.4254 48.4734 21.8225L48.466 21.8299L59.4106 30.7299L26.0524 30.7654H26.0079C23.2507 30.7684 20.6001 32.5774 20.0756 34.8635C19.5363 37.1926 21.409 39.1246 24.2759 39.135L24.2715 39.1454L41.1795 39.1128L11.0082 62.2716C10.9697 62.2998 10.9282 62.3294 10.8927 62.3576C8.04651 64.537 7.12644 68.161 8.91918 70.4545C10.7386 72.7865 14.607 72.791 17.4828 70.4678L33.9493 56.9912C33.9493 56.9912 33.7093 58.8106 33.7285 59.9025ZM76.0415 65.9949C72.6486 69.4514 67.8986 71.4116 62.759 71.422C57.6119 71.4309 52.8619 69.4885 49.469 66.0378C47.8111 64.3562 46.5933 62.4213 45.8421 60.3604C45.1057 58.335 44.8198 56.1852 45.0094 54.0162C45.1887 51.896 45.8199 49.8736 46.8273 48.0438C47.8171 46.2452 49.1801 44.6199 50.8632 43.2449C54.1613 40.5573 58.3601 39.1024 62.7516 39.0964C67.1475 39.0905 71.3433 40.5321 74.6443 43.2109C76.3245 44.5799 77.6861 46.1992 78.6758 47.9949C79.6877 49.8232 80.3144 51.8382 80.5011 53.9643C80.6878 56.1304 80.4018 58.2772 79.6655 60.3041C78.9128 62.3709 77.6994 64.3059 76.0415 65.9949Z" fill="#EA7600"/>
</svg>
