<svg width="100" height="100" viewBox="0 0 100 100" fill="none" xmlns="http://www.w3.org/2000/svg">
<g clip-path="url(#clip0_1_2)">
<path d="M8 81.169C8 87.1515 12.8492 92 18.831 92H81.169C87.1515 92 92 87.1508 92 81.169V18.831C92 12.8485 87.1508 8 81.169 8H18.831C12.8485 8 8 12.8492 8 18.831L8 81.169Z" fill="#563D7C"/>
<path d="M42.8329 45.1562V33.2606H53.304C54.3012 33.2606 55.2629 33.3437 56.1889 33.5099C57.1149 33.6761 57.934 33.9729 58.6464 34.4003C59.3587 34.8277 59.9285 35.4213 60.3559 36.1811C60.7833 36.9409 60.997 37.9144 60.997 39.1016C60.997 41.2385 60.3559 42.7819 59.0738 43.7316C57.7916 44.6814 56.1533 45.1562 54.1588 45.1562H42.8329ZM31.6496 24.5703V75.4297H56.2957C58.5751 75.4297 60.7952 75.1448 62.9559 74.5749C65.1166 74.0051 67.0398 73.1265 68.7256 71.9393C70.4115 70.7521 71.753 69.2207 72.7502 67.3449C73.7475 65.4691 74.2461 63.2491 74.2461 60.6847C74.2461 57.503 73.4744 54.7844 71.9311 52.5287C70.3877 50.273 68.049 48.6941 64.9147 47.7918C67.1942 46.6996 68.9156 45.2987 70.079 43.5892C71.2425 41.8796 71.8242 39.7427 71.8242 37.1783C71.8242 34.8039 71.4324 32.8094 70.6489 31.1949C69.8653 29.5803 68.7613 28.2862 67.3366 27.3127C65.912 26.3392 64.2024 25.6388 62.2079 25.2114C60.2135 24.784 58.0053 24.5703 55.5834 24.5703H31.6496ZM42.8329 66.7394V52.778H55.0136C57.4354 52.778 59.3824 53.336 60.8545 54.452C62.3267 55.5679 63.0627 57.4318 63.0627 60.0437C63.0627 61.3733 62.8372 62.4655 62.386 63.3203C61.9349 64.1751 61.3294 64.8518 60.5696 65.3504C59.8098 65.849 58.9313 66.2052 57.9341 66.4189C56.9368 66.6326 55.8921 66.7394 54.7999 66.7394H42.8329Z" fill="white"/>
</g>
<defs>
<clipPath id="clip0_1_2">
<rect width="84" height="84" fill="white" transform="translate(8 8)"/>
</clipPath>
</defs>
</svg>
