<svg width="100" height="100" viewBox="0 0 100 100" fill="none" xmlns="http://www.w3.org/2000/svg">
<path d="M66.8709 40.0696L66.3735 39.7979C66.6353 40.4306 66.7206 40.97 66.7114 41.4523C66.8046 41.0619 66.8663 40.6589 66.8742 40.2402C66.8801 40.7607 66.8171 41.2496 66.695 41.7043L66.7114 41.4523C66.5677 42.0574 66.3275 42.6172 66.0066 43.1304L66.1608 42.9663C64.2708 46.1288 59.1147 46.8198 56.5717 43.5537C52.4898 38.3102 56.6557 32.6573 57.2391 27.1048C57.9682 20.1459 53.6048 13.3898 48.194 9.34663C51.174 14.1674 47.2477 20.5462 44.1062 24.1109C41.0599 27.5687 37.356 30.4549 33.9934 33.5944C30.3821 36.9695 26.9079 40.5211 23.9403 44.4803C18.0019 52.4038 14.3656 62.3697 17.0379 72.2561C19.7075 82.1366 28.265 88.4254 37.9289 90.6488C33.0537 88.5409 28.4914 83.1852 28.4809 77.7056C28.4684 71.7298 32.2544 66.6576 36.9643 63.3245C36.3979 65.4632 36.0888 67.4195 37.4912 69.3325C38.7959 71.1116 41.0796 71.9752 43.2354 71.506C48.2747 70.4041 48.5051 64.8647 45.5185 61.6373C42.5647 58.4427 39.7074 54.8313 40.8309 50.1969C41.3939 47.8738 42.8206 45.6989 44.6286 44.1423C43.2387 47.793 47.186 51.3932 49.7861 53.1848C54.2985 56.2961 59.2466 58.6481 63.3954 62.2942C67.7581 66.1267 70.981 71.3084 70.33 77.3197C69.6239 83.8343 64.4474 88.3657 58.6415 90.6527C70.9108 87.9437 83.5908 78.4209 83.8487 64.8122C84.0646 53.6179 76.3852 45.002 66.8709 40.0696Z" fill="#EE4323"/>
</svg>
