<svg width="100" height="100" viewBox="0 0 100 100" fill="none" xmlns="http://www.w3.org/2000/svg">
<path d="M23.4928 79.4026L17.597 13.25H82.403L76.4994 79.3921L49.9606 86.75L23.4928 79.4026Z" fill="#1572B6"/>
<path d="M50 81.1273L71.4463 75.1816L76.4915 18.6601H50V81.1273Z" fill="#33A9DC"/>
<path d="M50 42.6264H60.7362L61.4765 34.3183H50V26.2044H50.0289H70.3438L70.1495 28.3805L68.1571 50.7403H50V42.6264Z" fill="white"/>
<path d="M50.0498 63.6972L50.0131 63.7077L40.9778 61.2665L40.4004 54.7959H36.0087H32.255L33.3916 67.535L50.0105 72.1497L50.0498 72.1392V63.6972Z" fill="#EBEBEB"/>
<path d="M60.046 50.3964L59.0695 61.2612L50.0211 63.7025V72.1445L66.6532 67.535L66.7765 66.1647L68.1861 50.3964H60.046Z" fill="white"/>
<path d="M50.0287 26.2044V31.2444V34.2973V34.3183H30.4567H30.4305L30.2677 32.4939L29.8976 28.3805L29.7034 26.2044H50.0287Z" fill="#EBEBEB"/>
<path d="M49.9999 42.6264V47.6664V50.7193V50.7403H41.1037H41.0775L40.9147 48.9159L40.5472 44.8025L40.353 42.6264H49.9999Z" fill="#EBEBEB"/>
</svg>
