<svg width="100" height="100" viewBox="0 0 100 100" fill="none" xmlns="http://www.w3.org/2000/svg">
<path d="M51.9398 13.3471C51.0399 13.3507 50.177 13.7058 49.5353 14.3367L49.5012 14.363L26.9524 27.3961L49.4382 49.8818V49.8976L76.4757 76.9351L81.6285 67.6531L63.0409 23.036L54.3784 14.3735C54.0601 14.0515 53.6812 13.7958 53.2635 13.621C52.8459 13.4462 52.3978 13.3558 51.945 13.355L51.9398 13.3471Z" fill="#66C3FA"/>
<path d="M27.0312 27.2938L14.0059 49.8189L13.9797 49.853C13.6625 50.1717 13.4115 50.5498 13.241 50.9658C13.0705 51.3818 12.9838 51.8273 12.986 52.2769C12.9882 52.7264 13.0792 53.1711 13.2538 53.5854C13.4284 53.9997 13.6831 54.3754 14.0033 54.6909L24.7999 65.4875L67.0204 82.0959L76.5649 76.7934L76.3024 76.5309H76.2368L49.7689 50.0184H49.7374L27.0312 27.2938Z" fill="#215896"/>
<path d="M26.879 27.3252L49.8845 50.3544H49.9187L76.397 76.8669L86.4744 74.9454L86.4875 45.1175L75.8458 34.6884C73.1925 32.3204 69.8675 30.8377 66.3328 30.4464V30.3309L26.879 27.3252Z" fill="#235997"/>
<path d="M27.047 27.4539L50.063 50.4699V50.504L76.5544 76.9955L74.6277 87.0729H44.8077L34.3838 76.4259C32.0175 73.7711 30.5367 70.4452 30.1471 66.9103H30.0316L27.047 27.4539Z" fill="#58B6F0"/>
</svg>
