<svg width="100" height="100" viewBox="0 0 100 100" fill="none" xmlns="http://www.w3.org/2000/svg">
<path d="M23.2251 72.575L23.6714 71.9529L44.7239 32.0161L44.7685 31.5935L35.4891 14.1635C35.3192 13.8448 35.0534 13.5875 34.7293 13.4281C34.4052 13.2688 34.0392 13.2154 33.683 13.2754C33.3269 13.3355 32.9986 13.5061 32.7448 13.763C32.4909 14.0198 32.3242 14.3501 32.2683 14.7069L23.2251 72.575Z" fill="#FFC24A"/>
<path d="M23.4875 72.1025L23.8235 71.4463L44.6582 31.9243L35.4024 14.426C35.2498 14.1217 35.0027 13.875 34.6981 13.723C34.3935 13.5709 34.0478 13.5216 33.7128 13.5825C33.3779 13.6434 33.0717 13.8112 32.8401 14.0608C32.6085 14.3103 32.464 14.6282 32.4283 14.9667L23.4875 72.1025Z" fill="#FFA712"/>
<path d="M51.5329 44.7762L58.4419 37.6887L51.5303 24.5086C51.3781 24.2249 51.1519 23.9879 50.8757 23.8226C50.5996 23.6573 50.2837 23.57 49.9618 23.57C49.64 23.57 49.3241 23.6573 49.0479 23.8226C48.7717 23.9879 48.5455 24.2249 48.3934 24.5086L44.7 31.5489V32.15L51.5329 44.7762Z" fill="#F4BD62"/>
<path d="M51.4095 44.4875L58.1269 37.61L51.4095 24.8C51.2996 24.5227 51.1117 24.2832 50.8687 24.1102C50.6257 23.9373 50.3378 23.8383 50.0398 23.8253C49.7418 23.8122 49.4464 23.8857 49.1892 24.0367C48.932 24.1878 48.724 24.41 48.5903 24.6766L44.8785 31.8403L44.7682 32.2051L51.4095 44.4875Z" fill="#FFA50E"/>
<path d="M23.2303 72.5776L23.4324 72.3729L24.1648 72.0762L51.0973 45.2435L51.4385 44.3142L44.7211 31.5095L23.2303 72.5776Z" fill="#F6820C"/>
<path d="M52.3941 86.1095L76.7751 72.5147L69.8084 29.6458C69.7584 29.3436 69.6262 29.061 69.4262 28.829C69.2262 28.597 68.9661 28.4247 68.6745 28.3308C68.3829 28.237 68.0711 28.2253 67.7734 28.297C67.4756 28.3688 67.2033 28.5212 66.9865 28.7375L23.2251 72.575L47.4618 86.1069C48.2152 86.5274 49.0638 86.7481 49.9266 86.7481C50.7895 86.7481 51.638 86.5274 52.3915 86.1069" fill="#FDE068"/>
<path d="M76.5519 72.4017L69.6429 29.8557C69.6307 29.5667 69.5331 29.2878 69.3623 29.0542C69.1915 28.8207 68.9552 28.6431 68.6835 28.5439C68.4117 28.4447 68.1166 28.4284 67.8356 28.4969C67.5545 28.5655 67.3001 28.7159 67.1046 28.9291L23.4875 72.4936L47.4564 85.8811C48.2039 86.2981 49.0457 86.517 49.9016 86.517C50.7576 86.517 51.5993 86.2981 52.3468 85.8811L76.5519 72.4017Z" fill="#FCCA3F"/>
<path d="M52.3941 85.7C51.6406 86.1205 50.7921 86.3412 49.9293 86.3412C49.0664 86.3412 48.2179 86.1205 47.4644 85.7L23.4246 72.3703L23.2251 72.575L47.4618 86.1069C48.2152 86.5274 49.0638 86.7481 49.9266 86.7481C50.7895 86.7481 51.638 86.5274 52.3915 86.1069L76.7751 72.5147L76.7148 72.1472L52.3941 85.7Z" fill="#EEAB37"/>
</svg>
