<svg width="100" height="100" viewBox="0 0 100 100" fill="none" xmlns="http://www.w3.org/2000/svg">
<path d="M23.4928 79.4026L17.5945 13.25H82.4057L76.4994 79.3921L49.9607 86.75L23.4928 79.4026Z" fill="#E44F26"/>
<path d="M50 81.1273L71.4463 75.1816L76.4915 18.6601H50V81.1273Z" fill="#F1662A"/>
<path d="M50 43.1934H39.2638L38.5235 34.8853H50V26.7714H49.9711H29.6562L29.8505 28.9501L31.8429 51.3073H50V43.1934Z" fill="#EBEBEB"/>
<path d="M49.9999 64.2643L49.9631 64.2748L40.9279 61.8361L40.3504 55.3655H35.9587H32.205L33.3416 68.102L49.9631 72.7168L49.9999 72.7063V64.2643Z" fill="#EBEBEB"/>
<path d="M49.9711 43.1934V51.3073H59.9619L59.0221 61.8309L49.9711 64.2722V72.7142L66.6058 68.102L66.7265 66.7318L68.6323 45.3722L68.8318 43.1934H66.6451H49.9711Z" fill="white"/>
<path d="M49.9712 26.7714V31.8114V34.8669V34.8853H69.5432H69.5694L69.7322 33.0635L70.1023 28.9501L70.2965 26.7714H49.9712Z" fill="white"/>
</svg>
