<svg width="100" height="100" viewBox="0 0 100 100" fill="none" xmlns="http://www.w3.org/2000/svg">
<path d="M39.042 72.9355C39.042 72.9355 35.8378 74.7989 41.3224 75.4295C47.9668 76.1875 51.3627 76.0788 58.6849 74.6929C58.6849 74.6929 60.61 75.9 63.2985 76.9455C46.884 83.9804 26.1493 76.538 39.042 72.9355Z" fill="#5382A1"/>
<path d="M37.0363 63.7554C37.0363 63.7554 33.4424 66.4156 38.9311 66.9833C46.0289 67.7156 51.6342 67.7755 61.3335 65.9078C61.3335 65.9078 62.675 67.2679 64.7845 68.0116C44.9384 73.8149 22.8335 68.4693 37.0363 63.7554Z" fill="#5382A1"/>
<path d="M53.9455 48.1828C57.99 52.8393 52.8828 57.0296 52.8828 57.0296C52.8828 57.0296 63.1525 51.728 58.4361 45.0893C54.0311 38.8982 50.6531 35.8221 68.9404 25.2161C68.9404 25.2161 40.2353 32.3853 53.9455 48.1828Z" fill="#E76F00"/>
<path d="M75.6549 79.7257C75.6549 79.7257 78.0261 81.6795 73.0434 83.191C63.5688 86.0612 33.609 86.9279 25.2863 83.3054C22.2945 82.0038 27.9049 80.1976 29.6698 79.8186C31.5103 79.4195 32.5621 79.4939 32.5621 79.4939C29.2349 77.15 11.0565 84.0961 23.3284 86.0854C56.7955 91.5128 84.3358 83.6414 75.6549 79.7257Z" fill="#5382A1"/>
<path d="M40.5829 54.2437C40.5829 54.2437 25.3434 57.8633 35.1862 59.1777C39.3422 59.7341 47.6269 59.6082 55.3439 58.9617C61.6507 58.4297 67.9835 57.2985 67.9835 57.2985C67.9835 57.2985 65.7596 58.2509 64.1507 59.3495C48.6753 63.4195 18.7797 61.5261 27.3862 57.3629C34.6648 53.8445 40.5829 54.2437 40.5829 54.2437Z" fill="#5382A1"/>
<path d="M67.9207 69.5245C83.6522 61.3498 76.3786 53.494 71.3017 54.5524C70.0573 54.8114 69.5025 55.0358 69.5025 55.0358C69.5025 55.0358 69.9645 54.3121 70.8468 53.9989C80.8905 50.4679 88.6147 64.4133 67.6046 69.9365C67.6046 69.9367 67.848 69.7191 67.9207 69.5245Z" fill="#5382A1"/>
<path d="M58.4361 8.09017C58.4361 8.09017 67.1484 16.8055 50.1728 30.2071C36.5601 40.9575 47.0687 47.0871 50.1672 54.0904C42.2212 46.9212 36.3899 40.6101 40.302 34.7364C46.044 26.1142 61.9513 21.9339 58.4361 8.09017Z" fill="#E76F00"/>
<path d="M42.1288 91.676C57.229 92.6426 80.4172 91.1397 80.9664 83.9947C80.9664 83.9947 79.9107 86.7033 68.4868 88.8544C55.5984 91.2798 39.7024 90.9966 30.2744 89.4422C30.2746 89.442 32.2044 91.0396 42.1288 91.676Z" fill="#5382A1"/>
</svg>
