<svg width="100" height="100" viewBox="0 0 100 100" fill="none" xmlns="http://www.w3.org/2000/svg">
<g clip-path="url(#clip0_1_26)">
<path d="M79.4 8H20.6C13.6412 8 8 13.6412 8 20.6V79.4C8 86.3588 13.6412 92 20.6 92H79.4C86.3588 92 92 86.3588 92 79.4V20.6C92 13.6412 86.3588 8 79.4 8Z" fill="#F7DF1E"/>
<path d="M61.1562 68.7031C62.7969 71.4922 65.0938 73.4609 68.8672 73.4609C72.1484 73.4609 74.2812 71.8203 74.2812 69.5234C74.2812 66.8984 72.1484 65.9141 68.5391 64.2734L66.5703 63.4531C60.8281 60.9922 57.0547 58.0391 57.0547 51.6406C57.0547 45.7344 61.4844 41.1406 68.5391 41.1406C73.625 41.1406 77.2344 42.9453 79.6953 47.5391L73.625 51.4766C72.3125 49.0156 70.8359 48.0312 68.5391 48.0312C66.2422 48.0312 64.7656 49.5078 64.7656 51.4766C64.7656 53.7734 66.2422 54.7578 69.6875 56.2344L71.6562 57.0547C78.3828 60.0078 82.1562 62.7969 82.1562 69.5234C82.1562 76.5781 76.5781 80.5156 69.0312 80.5156C61.6484 80.5156 56.8906 77.0703 54.5938 72.4766L61.1562 68.7031ZM33.2656 69.3594C34.5781 71.4922 35.5625 73.4609 38.3516 73.4609C40.9766 73.4609 42.6172 72.4766 42.6172 68.5391V41.3047H50.4922V68.2109C50.4922 76.4141 45.7344 80.0234 38.6797 80.0234C32.2812 80.0234 28.6719 76.7422 26.8672 72.8047L33.2656 69.3594Z" fill="black"/>
</g>
<defs>
<clipPath id="clip0_1_26">
<rect width="84" height="84" fill="white" transform="translate(8 8)"/>
</clipPath>
</defs>
</svg>
