<svg width="100" height="100" viewBox="0 0 100 100" fill="none" xmlns="http://www.w3.org/2000/svg">
<g clip-path="url(#clip0_1_18)">
<path d="M91.9526 26.5627C91.9838 26.678 92 26.7968 92 26.9162V45.4776C92 45.9626 91.7406 46.4104 91.3199 46.6517L75.741 55.6211V73.3993C75.741 73.8831 75.4839 74.3297 75.0643 74.5733L42.5446 93.2937C42.4702 93.336 42.389 93.3631 42.3078 93.3919C42.2774 93.402 42.2486 93.4206 42.2165 93.4291C41.9891 93.4889 41.7502 93.4889 41.5229 93.4291C41.4856 93.4189 41.4518 93.3986 41.4163 93.3851C41.3418 93.358 41.264 93.3343 41.193 93.2937L8.68007 74.5733C8.25967 74.3318 8 73.8841 8 73.3993V17.7151C8 17.5932 8.01692 17.4748 8.04737 17.3598C8.05752 17.3209 8.0812 17.2854 8.09474 17.2464C8.12011 17.1754 8.1438 17.1027 8.18101 17.0367C8.20639 16.9927 8.24361 16.9572 8.27406 16.9166C8.31297 16.8624 8.34849 16.8066 8.39417 16.7592C8.43308 16.7203 8.48383 16.6916 8.52781 16.6577C8.57687 16.6171 8.62086 16.5731 8.67668 16.541H8.67837L24.9357 7.18079C25.3546 6.93974 25.8701 6.93974 26.289 7.18079L42.5463 16.541H42.5497C42.6039 16.5748 42.6495 16.6171 42.6986 16.656C42.7426 16.6899 42.7916 16.7203 42.8305 16.7575C42.8779 16.8066 42.9117 16.8624 42.9524 16.9166C42.9811 16.9572 43.02 16.9927 43.0437 17.0367C43.0826 17.1043 43.1046 17.1754 43.1317 17.2464C43.1452 17.2854 43.1689 17.3209 43.179 17.3615C43.2102 17.4768 43.2261 17.5956 43.2264 17.7151V52.4949L56.7736 44.6944V26.9146C56.7736 26.7961 56.7905 26.676 56.821 26.5627C56.8328 26.5221 56.8548 26.4865 56.8683 26.4476C56.8954 26.3766 56.9191 26.3038 56.9563 26.2379C56.9817 26.1939 57.0189 26.1584 57.0476 26.1178C57.0882 26.0636 57.1221 26.0078 57.1695 25.9604C57.2084 25.9215 57.2574 25.8928 57.3014 25.8589C57.3522 25.8183 57.3961 25.7743 57.4503 25.7422H57.452L73.711 16.382C74.1298 16.1406 74.6455 16.1406 75.0643 16.382L91.3216 25.7422C91.3791 25.776 91.4231 25.8183 91.4739 25.8572C91.5162 25.8911 91.5652 25.9215 91.6041 25.9587C91.6515 26.0078 91.6853 26.0636 91.7259 26.1178C91.7564 26.1584 91.7936 26.1939 91.8173 26.2379C91.8562 26.3038 91.8782 26.3766 91.9053 26.4476C91.9205 26.4865 91.9425 26.5221 91.9526 26.5627ZM89.2899 44.6944V29.2593L83.6007 32.5344L75.741 37.0597V52.4949L89.2916 44.6944H89.2899ZM73.0326 72.616V57.1707L65.3015 61.5861L43.2247 74.1859V89.7767L73.0326 72.616ZM10.7101 20.0581V72.616L40.5146 89.775V74.1876L24.9441 65.3755L24.9391 65.3721L24.9323 65.3687C24.8798 65.3383 24.8359 65.2943 24.7868 65.2571C24.7445 65.2232 24.6955 65.1962 24.6582 65.159L24.6549 65.1539C24.6109 65.1116 24.5804 65.0592 24.5432 65.0118C24.5094 64.9661 24.4688 64.9272 24.4417 64.8798L24.44 64.8748C24.4096 64.824 24.3909 64.7631 24.369 64.7056C24.347 64.6548 24.3182 64.6075 24.3047 64.5533V64.5516C24.2878 64.4874 24.2844 64.4197 24.2776 64.3537C24.2708 64.303 24.2573 64.2522 24.2573 64.2015V64.1981V27.8585L16.3993 23.3315L10.7101 20.0598V20.0581ZM25.614 9.91798L12.0686 17.7151L25.6107 25.5121L39.1545 17.7134L25.6107 9.91798H25.614ZM32.6583 58.5782L40.5163 54.0546V20.0581L34.8271 23.3332L26.9674 27.8585V61.8551L32.6583 58.5782ZM74.3876 19.1192L60.8438 26.9162L74.3876 34.7133L87.9298 26.9146L74.3876 19.1192ZM73.0326 37.0597L65.1729 32.5344L59.4837 29.2593V44.6944L67.3417 49.218L73.0326 52.4949V37.0597ZM41.868 71.8429L61.7337 60.5017L71.664 54.8345L58.1303 47.0425L42.548 56.0136L28.3462 64.1896L41.868 71.8429Z" fill="#FF2D20"/>
</g>
<defs>
<clipPath id="clip0_1_18">
<rect width="84" height="86.625" fill="white" transform="translate(8 7)"/>
</clipPath>
</defs>
</svg>
