<svg width="100" height="100" viewBox="0 0 100 100" fill="none" xmlns="http://www.w3.org/2000/svg">
<path fill-rule="evenodd" clip-rule="evenodd" d="M65.775 36.0954C66.8282 39.1423 67.5869 42.253 67.8362 45.4771C68.146 49.477 68.0042 53.4486 67.161 57.3828C67.138 57.4911 67.0894 57.5928 67.0533 57.6978C66.7889 57.6985 66.5191 57.6656 66.2606 57.7057C64.0759 58.0489 61.8932 58.4046 59.7105 58.7583C57.4544 59.1238 55.1949 59.4749 52.9426 59.8654C52.1446 60.0032 51.157 59.8385 50.8348 60.9423C50.8256 60.9725 50.7337 60.9777 50.6806 60.9948L50.7895 54.3988C50.7521 49.0937 50.7153 43.7886 50.6786 38.4835L51.7299 38.303C53.4493 38.0215 55.1686 37.736 56.8893 37.4623C58.9427 37.1362 60.9981 36.8192 63.0528 36.5009C63.9591 36.3598 64.8667 36.2306 65.775 36.0954Z" fill="#439934"/>
<path fill-rule="evenodd" clip-rule="evenodd" d="M48.5096 80.2229C47.4006 79.2694 46.2528 78.3579 45.1897 77.3551C39.4691 71.9594 35.2849 65.6089 33.2243 57.9524C32.6566 55.8452 32.278 53.7039 32.1566 51.5264C32.0712 50.0026 31.9479 48.465 32.0555 46.9491C32.3423 42.9171 32.925 38.9238 34.1076 35.0401L34.1725 34.9496C34.2874 35.1025 34.4528 35.2376 34.5112 35.4102C35.6655 38.8096 36.8113 42.2116 37.9512 45.6156C41.533 56.3125 45.1103 67.012 48.698 77.7062C48.7682 77.9149 48.95 78.0862 49.0806 78.2745L48.5096 80.2229Z" fill="#45A538"/>
<path fill-rule="evenodd" clip-rule="evenodd" d="M65.7749 36.0954C64.8667 36.2306 63.9584 36.3599 63.0521 36.4996C60.9974 36.8179 58.942 37.1349 56.8886 37.461C55.168 37.7347 53.4486 38.0202 51.7292 38.3017L50.6779 38.4822L50.67 37.7964C50.6352 37.2327 50.5755 36.6696 50.5689 36.1059C50.5237 32.5109 50.4954 28.916 50.4508 25.3211C50.4233 23.0708 50.3819 20.8212 50.336 18.5715C50.3078 17.1737 50.2776 15.7753 50.2146 14.3794C50.1805 13.6293 50.0597 12.8832 50.0105 12.1331C49.9829 11.7019 50.021 11.2675 50.0295 10.8344C50.5657 11.8732 51.09 12.9199 51.6413 13.9509C52.5121 15.581 53.8994 16.7819 55.1483 18.0925C60.0852 23.2716 63.5903 29.2934 65.7749 36.0954Z" fill="#46A037"/>
<path fill-rule="evenodd" clip-rule="evenodd" d="M50.6799 60.9941C50.7331 60.9771 50.8256 60.9718 50.8341 60.9416C51.1563 59.8378 52.144 60.0025 52.942 59.8647C55.1942 59.4749 57.4537 59.1232 59.7099 58.7576C61.8926 58.4039 64.0753 58.0482 66.2599 57.705C66.5185 57.6643 66.7882 57.6978 67.0527 57.6971C66.6445 59.154 66.3229 60.6424 65.8051 62.0592C65.2171 63.6664 64.5058 65.2348 63.7504 66.7724C62.6217 69.0713 61.2153 71.2152 59.5813 73.1794C58.3219 74.694 56.9182 76.0938 55.5112 77.4765C54.7336 78.2411 53.8168 78.8638 52.9636 79.5509L52.7425 79.4L51.9458 78.7188L51.1215 76.9121C50.5539 74.7971 50.256 72.6439 50.2067 70.456L50.2218 70.0878L50.3341 68.4957C50.3715 67.9524 50.4213 67.4096 50.4443 66.865C50.529 64.908 50.6025 62.9511 50.6799 60.9941Z" fill="#409433"/>
<path fill-rule="evenodd" clip-rule="evenodd" d="M50.6799 60.9942C50.6025 62.9511 50.529 64.908 50.4456 66.8656C50.4226 67.4103 50.3728 67.953 50.3354 68.4964L49.8333 68.6861C48.7184 65.4035 47.6027 62.1557 46.5114 58.8994C44.7067 53.5123 42.9237 48.1166 41.1216 42.7281C39.6667 38.3785 38.2 34.0334 36.7247 29.6904C36.6558 29.4869 36.4576 29.3281 36.3198 29.1483L39.5328 23.2408C39.6431 23.4324 39.7888 23.6115 39.8583 23.8176C41.3447 28.2164 42.8285 32.6159 44.2998 37.02C46.2134 42.7491 48.1153 48.4828 50.0276 54.2125C50.1037 54.4415 50.2297 54.6528 50.3498 54.9094L50.7895 54.3975C50.7527 56.5966 50.716 58.7951 50.6799 60.9942Z" fill="#4FAA41"/>
<path fill-rule="evenodd" clip-rule="evenodd" d="M36.3205 29.149C36.4583 29.3288 36.6558 29.4876 36.7254 29.691C38.2006 34.0341 39.6674 38.3791 41.1223 42.7287C42.9243 48.1172 44.7074 53.5129 46.512 58.9C47.6027 62.1557 48.7184 65.4041 49.834 68.6867L50.336 68.497L50.2238 70.0891L50.1221 70.456C49.9475 72.199 49.8005 73.9459 49.5879 75.685C49.4809 76.5565 49.2539 77.4122 49.0813 78.2752C48.9513 78.0868 48.7689 77.9155 48.6987 77.7069C45.111 67.012 41.5337 56.3131 37.9519 45.6162C36.812 42.2123 35.6662 38.8103 34.5119 35.4109C34.4535 35.2383 34.2887 35.1031 34.1732 34.9502C34.8885 33.0162 35.6045 31.0823 36.3205 29.149Z" fill="#4AA73C"/>
<path fill-rule="evenodd" clip-rule="evenodd" d="M50.7888 54.3982L50.3491 54.9101C50.2291 54.6535 50.1031 54.4415 50.0269 54.2131C48.1153 48.4834 46.2128 42.7497 44.2992 37.0207C42.8279 32.6166 41.3441 28.2171 39.8577 23.8182C39.7888 23.6122 39.6431 23.4324 39.5322 23.2414L43.5058 18.0144C43.6311 18.1817 43.8096 18.3307 43.8746 18.519C44.9777 21.7484 46.0711 24.9818 47.1578 28.2171C48.173 31.2385 49.1732 34.2644 50.2002 37.2819C50.2691 37.484 50.5086 37.6271 50.6687 37.7977L50.6766 38.4835C50.7147 43.7873 50.7521 49.0931 50.7888 54.3982Z" fill="#57AE47"/>
<path fill-rule="evenodd" clip-rule="evenodd" d="M50.67 37.7964C50.5099 37.6257 50.2703 37.4827 50.2014 37.2806C49.1744 34.2631 48.1743 31.2372 47.159 28.2158C46.0723 24.9805 44.979 21.7478 43.8758 18.5177C43.8109 18.3294 43.6324 18.1804 43.507 18.0131C44.7992 16.7478 46.0513 15.4373 47.3953 14.2304C48.5903 13.1581 49.5511 12.0084 49.595 10.3139C49.597 10.2437 49.6338 10.1735 49.6902 9.97662L50.0308 10.8337C50.0223 11.2675 49.9835 11.7012 50.0118 12.1324C50.061 12.8825 50.1817 13.6287 50.2159 14.3787C50.2789 15.7746 50.309 17.1731 50.3373 18.5709C50.3825 20.8205 50.4239 23.0701 50.4521 25.3204C50.4961 28.9153 50.525 32.5103 50.5702 36.1052C50.5755 36.6702 50.6345 37.2327 50.67 37.7964Z" fill="#60B24F"/>
<path fill-rule="evenodd" clip-rule="evenodd" d="M49.0799 78.2745C49.2525 77.4116 49.4796 76.5552 49.5866 75.6843C49.7998 73.9459 49.9462 72.1983 50.1207 70.4553L50.1641 70.4488L50.2074 70.456C50.2566 72.6439 50.5545 74.7971 51.1222 76.9122C51.0067 77.0644 50.8433 77.2003 50.7822 77.3722C50.3052 78.7175 49.8556 80.0733 49.3759 81.4186C49.3103 81.6024 49.1278 81.7454 48.9992 81.9069L48.509 80.2229L49.0799 78.2745Z" fill="#A9AA88"/>
<path fill-rule="evenodd" clip-rule="evenodd" d="M48.9999 81.9075C49.1285 81.7461 49.3116 81.603 49.3766 81.4193C49.8563 80.074 50.3065 78.7188 50.7829 77.3728C50.844 77.2009 51.0067 77.0651 51.1229 76.9128L51.9465 78.7201C51.7837 78.9511 51.5593 79.1592 51.4687 79.4164L49.8911 84.0489C49.8261 84.2346 49.6043 84.3658 49.456 84.5227L48.9999 81.9075Z" fill="#B6B598"/>
<path fill-rule="evenodd" clip-rule="evenodd" d="M49.456 84.522C49.6049 84.3659 49.8261 84.234 49.8911 84.0482L51.4687 79.4158C51.5586 79.1592 51.7837 78.9505 51.9464 78.7195L52.7438 79.4C52.3586 79.7806 52.1446 80.2203 52.2732 80.7762L52.0311 81.5689C51.9208 81.7048 51.7614 81.8229 51.7069 81.9784C51.1563 83.5554 50.6306 85.1409 50.0761 86.7179C50.0059 86.918 49.811 87.0749 49.6732 87.2507C49.6016 86.3405 49.5288 85.4323 49.456 84.522Z" fill="#C2C1A7"/>
<path fill-rule="evenodd" clip-rule="evenodd" d="M49.6738 87.2507C49.811 87.0742 50.0059 86.9173 50.0768 86.7178C50.6313 85.1415 51.157 83.556 51.7076 81.9784C51.762 81.8235 51.9208 81.7048 52.0317 81.5689L51.6977 85.2078C51.6085 85.3108 51.4792 85.4007 51.4365 85.5208C51.0592 86.58 50.7035 87.6471 50.3248 88.7063C50.2467 88.9248 50.0971 89.1177 49.9803 89.3218C49.8766 89.186 49.6909 89.0547 49.6824 88.913C49.6489 88.3611 49.6719 87.8053 49.6738 87.2507Z" fill="#CECDB7"/>
<path fill-rule="evenodd" clip-rule="evenodd" d="M49.9796 89.3218C50.0964 89.1171 50.2461 88.9241 50.3242 88.7063C50.7035 87.6477 51.0585 86.5807 51.4358 85.5208C51.4785 85.4007 51.6084 85.3115 51.697 85.2078L51.7049 87.5965L50.9056 89.6467L49.9796 89.3218Z" fill="#DBDAC7"/>
<path fill-rule="evenodd" clip-rule="evenodd" d="M50.9056 89.6474L51.7049 87.5972L51.8696 90.0227L50.9056 89.6474Z" fill="#EBE9DC"/>
<path fill-rule="evenodd" clip-rule="evenodd" d="M52.2732 80.7768C52.1446 80.2209 52.3579 79.7806 52.7438 79.4006L52.9649 79.5516L52.2732 80.7768Z" fill="#CECDB7"/>
<path fill-rule="evenodd" clip-rule="evenodd" d="M50.2073 70.4566L50.164 70.4494L50.1207 70.456L50.2224 70.0891L50.2073 70.4566Z" fill="#4FAA41"/>
</svg>
