<svg width="100" height="100" viewBox="0 0 100 100" fill="none" xmlns="http://www.w3.org/2000/svg">
<path d="M9.31316 67.3631H12.009V56.7167L16.1828 65.9981C16.675 67.1216 17.3489 67.5186 18.6713 67.5186C19.9936 67.5186 20.642 67.1216 21.1342 65.9981L25.3079 56.7167V67.3631H28.0038V56.7344C28.0038 55.6976 27.5891 55.1955 26.7333 54.937C24.6852 54.2978 23.311 54.851 22.6888 56.2337L18.5932 65.3936L14.6275 56.2331C14.0309 54.851 12.6312 54.2978 10.583 54.9363C9.72725 55.1955 9.3125 55.6969 9.3125 56.7338L9.31316 67.3631ZM30.2462 58.6966H32.9414V64.5622C32.9165 64.8805 33.0438 65.6286 34.5204 65.6522C35.2737 65.664 40.3361 65.6522 40.3833 65.6522V58.6677H43.0851C43.0976 58.6677 43.0825 68.1926 43.0825 68.2319C43.0969 70.5813 40.1681 71.0912 38.8175 71.1306H30.3046V69.3167C30.3191 69.3167 38.8116 69.3187 38.8326 69.3161C40.5684 69.133 40.363 68.2706 40.3623 67.9806V67.2731H34.6326C31.9669 67.2489 30.2685 66.0853 30.2469 64.7466C30.2456 64.6239 30.3053 58.7557 30.2462 58.6966Z" fill="#00618A"/>
<path d="M45.1634 67.3631H52.915C53.8226 67.3631 54.7046 67.1734 55.4041 66.8453C56.5703 66.3098 57.1406 65.584 57.1406 64.6324V62.6624C57.1406 61.8847 56.4929 61.1582 55.2224 60.6752C54.5484 60.4154 53.7182 60.2782 52.9143 60.2782H49.6475C48.5588 60.2782 48.0404 59.9501 47.9111 59.2243C47.8855 59.1376 47.8855 59.0687 47.8855 58.9821V57.7549C47.8855 57.686 47.8855 57.6165 47.9111 57.5305C48.0404 56.9773 48.3258 56.8217 49.2853 56.7351L49.5445 56.718H57.2443V54.9212H49.6744C48.5857 54.9212 48.0154 54.9901 47.497 55.1457C45.8898 55.647 45.189 56.4418 45.189 57.8245V59.3969C45.189 60.607 46.5638 61.6439 48.8705 61.886C49.1304 61.9024 49.389 61.9208 49.6482 61.9208H52.4484C52.5521 61.9208 52.6558 61.9208 52.7339 61.9372C53.5896 62.0061 53.9519 62.1623 54.2117 62.4727C54.3673 62.6282 54.4185 62.7844 54.4185 62.9564V64.5294C54.4185 64.719 54.2892 64.9612 54.03 65.1686C53.797 65.376 53.4078 65.5144 52.8894 65.5492L52.6039 65.5663H45.1634V67.3631ZM73.9603 64.2354C73.9603 66.084 75.3345 67.1209 78.1078 67.329C78.367 67.346 78.6262 67.3631 78.8854 67.3631H85.9112V65.5663H78.8342C77.2527 65.5663 76.6568 65.1686 76.6568 64.2177V54.9199H73.9609L73.9603 64.2354ZM58.8613 64.3286V57.9203C58.8613 56.2928 60.0045 55.3051 62.2646 54.9934C62.4982 54.9586 62.7587 54.9416 62.9917 54.9416H68.1098C68.3697 54.9416 68.6033 54.9586 68.8625 54.9934C71.1226 55.3051 72.2665 56.2921 72.2665 57.9203V64.3286C72.2665 65.6503 71.7809 66.3564 70.662 66.8171L73.3185 69.2144H70.1875L68.0389 67.2745L65.8759 67.4116H62.9917C62.4982 67.4116 61.9791 67.3427 61.4075 67.1865C59.6927 66.7193 58.8613 65.8183 58.8613 64.3286ZM61.7711 64.173C61.7711 64.2597 61.7967 64.3469 61.8229 64.4506C61.9785 65.1955 62.6806 65.6109 63.7451 65.6109H66.1942L63.9446 63.5798H67.0755L69.0371 65.3517C69.3993 65.1581 69.6369 64.8641 69.7202 64.4854C69.7458 64.3988 69.7458 64.3122 69.7458 64.2255V58.0778C69.7458 58.0089 69.7458 57.9216 69.7202 57.835C69.564 57.142 68.8625 56.7443 67.8237 56.7443H63.7444C62.55 56.7443 61.7704 57.264 61.7704 58.0778L61.7711 64.173Z" fill="#E48E00"/>
<path d="M88.2829 51.9372C86.6259 51.892 85.36 52.0462 84.2772 52.5023C83.9694 52.6322 83.4792 52.6355 83.4293 53.0207C83.598 53.1985 83.6242 53.463 83.7588 53.6809C84.0173 54.0989 84.4537 54.6594 84.8429 54.9527C85.2675 55.2736 85.7058 55.6175 86.1626 55.8957C86.9731 56.3905 87.8787 56.6727 88.6603 57.1675C89.1203 57.4602 89.5771 57.8277 90.0266 58.1578C90.2491 58.3199 90.3974 58.5739 90.6868 58.6756V58.629C90.5352 58.4361 90.4958 58.171 90.3567 57.9688L89.7437 57.3559C89.1446 56.5605 88.3847 55.8629 87.5755 55.2828C86.9311 54.8201 85.4886 54.1947 85.2196 53.4446L85.1723 53.3981C85.6291 53.3462 86.1646 53.1808 86.5859 53.068C87.2946 52.8776 87.9279 52.9269 88.6596 52.7379L89.6493 52.4544V52.2667C89.2798 51.8874 89.0153 51.3847 88.6124 51.0415C87.5578 50.143 86.4054 49.2453 85.2196 48.4959C84.562 48.0811 83.7489 47.8114 83.0513 47.4596C82.8177 47.3409 82.4056 47.2798 82.25 47.0823C81.8832 46.6157 81.6843 46.0244 81.4015 45.4804C80.8109 44.3418 80.2294 43.0975 79.7051 41.8986C79.3481 41.0815 79.1145 40.2757 78.6689 39.5426C76.5288 36.0245 74.2254 33.9009 70.6574 31.814C69.8981 31.3697 68.9839 31.1951 68.0186 30.9661L66.4633 30.8716C66.1476 30.7397 65.8182 30.3525 65.5209 30.1648C64.3383 29.418 61.3065 27.7938 60.431 29.9299C59.8785 31.2778 61.2579 32.593 61.7508 33.2761C62.0966 33.7552 62.5402 34.292 62.7876 34.8308C62.9504 35.1851 62.9779 35.5402 63.1177 35.9149C63.4596 36.8376 63.7582 37.8423 64.2012 38.6948C64.425 39.1266 64.6724 39.5814 64.9552 39.9672C65.1285 40.2035 65.4264 40.3085 65.473 40.674C65.1823 41.0809 65.1652 41.7135 65.0018 42.2287C64.2655 44.5511 64.5431 47.438 65.6148 49.1567C65.9435 49.685 66.7179 50.8164 67.7823 50.3819C68.7136 50.0026 68.5062 48.8273 68.7726 47.7897C68.833 47.5555 68.7956 47.3822 68.9137 47.2247V47.272L69.7623 48.9684C70.3903 49.9796 71.5039 51.0355 72.4483 51.7489C72.9378 52.1184 73.3237 52.7582 73.9563 52.9741V52.9262H73.9098C73.7864 52.7352 73.5954 52.6565 73.4379 52.5023C73.0691 52.1407 72.6589 51.6918 72.3544 51.277C71.4954 50.1115 70.7368 48.8351 70.0451 47.5069C69.715 46.873 69.4282 46.1734 69.15 45.5276C69.0423 45.2789 69.0437 44.9022 68.8205 44.7743C68.5147 45.2468 68.0665 45.6294 67.8303 46.1878C67.4536 47.0803 67.405 48.169 67.2652 49.2978L67.1707 49.3444C66.5138 49.1862 66.2835 48.5103 66.0393 47.9308C65.4225 46.4654 65.3076 44.1049 65.851 42.4177C65.9914 41.9806 66.626 40.6058 66.3688 40.2022C66.2461 39.7999 65.8412 39.5676 65.6154 39.2591C65.3352 38.8792 65.055 38.3791 64.8614 37.9394C64.3561 36.7969 64.1205 35.5139 63.5896 34.3583C63.3349 33.8057 62.9058 33.2472 62.5527 32.7564C62.1622 32.2117 61.7245 31.8114 61.4213 31.1538C61.3137 30.9202 61.1673 30.5455 61.3268 30.3053C61.3773 30.1432 61.4502 30.0756 61.6103 30.0224C61.8833 29.8118 62.6446 30.0926 62.9294 30.2108C63.6854 30.5251 64.316 30.8237 64.9565 31.2476C65.2637 31.4517 65.5741 31.8455 65.9462 31.9544H66.3701C67.0336 32.1067 67.7771 32.001 68.3966 32.1894C69.4925 32.5227 70.4743 33.0405 71.3655 33.6036C74.0817 35.319 76.3018 37.7603 77.8217 40.6727C78.0658 41.1419 78.1721 41.5888 78.3867 42.0863C78.8211 43.089 79.3684 44.1213 79.8003 45.1024C80.2314 46.0809 80.6521 47.0685 81.2617 47.8829C81.582 48.3108 82.8197 48.5405 83.3821 48.778C83.7765 48.9447 84.4222 49.1186 84.7956 49.3431C85.509 49.7736 86.2007 50.2861 86.8694 50.7573C87.2034 50.9949 88.2318 51.5113 88.2829 51.9372ZM67.218 33.9829C66.8728 33.9763 66.628 34.021 66.3694 34.0774V34.124H66.4167C66.5814 34.4633 66.8721 34.6811 67.0762 34.9725L67.5481 35.9621L67.5947 35.9155C67.8867 35.7101 68.0199 35.3814 68.0186 34.8787C67.9011 34.7553 67.8841 34.6011 67.783 34.4547C67.6491 34.2579 67.3879 34.1476 67.218 33.9829Z" fill="#00618A"/>
</svg>
