<svg width="100" height="100" viewBox="0 0 100 100" fill="none" xmlns="http://www.w3.org/2000/svg">
<path d="M50 29.6818C27.8581 29.6818 9.90707 38.7788 9.90707 50C9.90707 61.2212 27.8581 70.3181 50 70.3181C72.1419 70.3181 90.0929 61.2212 90.0929 50C90.0929 38.7788 72.1419 29.6818 50 29.6818ZM39.5676 53.9585C38.6108 54.8536 37.5483 55.2231 36.3782 55.6037C35.2081 55.985 33.7191 55.9062 31.9085 55.9062H27.805L26.6677 62.4687H21.8764L26.1519 40.1562H35.3656C38.1376 40.1562 40.1595 40.9536 41.4307 42.4085C42.7019 43.8634 43.0838 45.9286 42.5772 48.5359C42.3678 49.6102 42.0154 50.609 41.518 51.4989C41.0199 52.3894 40.3695 53.2209 39.5676 53.9585ZM53.5529 55.9062L55.4436 46.4431C55.6588 45.3354 55.5801 44.5124 55.2067 44.1102C54.8326 43.7072 54.0373 43.4375 52.8212 43.4375H49.0215L46.5731 55.9062H41.8192L46.0947 34.25H50.8485L49.7119 40.1562H53.9467C56.6117 40.1562 58.4492 40.6911 59.4605 41.6203C60.4718 42.5496 60.775 43.8227 60.3707 45.9043L58.3816 55.9062H53.5529ZM79.9729 48.5707C79.7642 49.645 79.4112 50.6267 78.9144 51.5159C78.4169 52.4065 77.7673 53.2209 76.9647 53.9585C76.0078 54.8536 74.9447 55.2231 73.7753 55.6037C72.6058 55.985 71.1155 55.9062 69.3049 55.9062H65.2014L64.0648 62.4687H59.2735L63.5483 40.1562H72.7627C75.5347 40.1562 77.5566 40.9536 78.8271 42.4085C80.0969 43.8634 80.4795 45.9641 79.9729 48.5707ZM70.9468 43.4375H67.6649L65.8754 52.625H68.7904C70.7211 52.625 72.1609 52.4347 73.1059 51.7062C74.0522 50.9791 74.6894 49.8504 75.0209 48.1487C75.3385 46.514 75.1941 45.2389 74.5877 44.5669C73.9807 43.8949 72.7673 43.4375 70.9468 43.4375ZM33.5504 43.4375H30.2679L28.4783 52.625H31.3927C33.324 52.625 34.7632 52.4347 35.7088 51.7062C36.6545 50.9791 37.2924 49.8504 37.6231 48.1487C37.9408 46.514 37.7964 45.2389 37.19 44.5669C36.5836 43.8949 35.3709 43.4375 33.5504 43.4375Z" fill="#6181B6"/>
</svg>
