<svg width="100" height="100" viewBox="0 0 100 100" fill="none" xmlns="http://www.w3.org/2000/svg">
<g clip-path="url(#clip0_7_9)">
<path d="M49.6443 8.0238C28.3712 8.02381 29.6996 17.2853 29.6996 17.2853L29.7233 26.8801H50.0237V29.7609H21.6601C21.6601 29.7609 8.04743 28.211 8.04743 49.76C8.04743 71.3089 19.9289 70.5447 19.9289 70.5447H27.0198V60.5452C27.0198 60.5452 26.6375 48.6172 38.7115 48.6172H58.8459C58.8459 48.6172 70.1581 48.8007 70.1581 37.6415V19.19C70.1581 19.1899 71.8756 8.0238 49.6443 8.0238ZM38.4506 14.4759C40.4703 14.4759 42.1028 16.1147 42.1028 18.1424C42.1028 20.17 40.4703 21.8089 38.4506 21.8089C36.4309 21.8089 34.7984 20.17 34.7984 18.1424C34.7984 16.1147 36.4309 14.4759 38.4506 14.4759Z" fill="url(#paint0_linear_7_9)"/>
<path d="M50.2484 91.7122C71.5215 91.7122 70.1931 82.4507 70.1931 82.4507L70.1694 72.8559H49.869V69.9751H78.2326C78.2326 69.9751 91.8453 71.5249 91.8453 49.976C91.8453 28.4271 79.9638 29.1913 79.9638 29.1913H72.8729V39.1908C72.8729 39.1908 73.2552 51.1188 61.1812 51.1188H41.0468C41.0468 51.1188 29.7346 50.9352 29.7346 62.0945V80.546C29.7346 80.546 28.0171 91.7122 50.2484 91.7122ZM61.4421 85.2601C59.4224 85.2601 57.7899 83.6213 57.7899 81.5936C57.7899 79.5659 59.4224 77.9271 61.4421 77.9271C63.4618 77.9271 65.0943 79.5659 65.0943 81.5936C65.0943 83.6213 63.4618 85.2601 61.4421 85.2601Z" fill="url(#paint1_linear_7_9)"/>
</g>
<defs>
<linearGradient id="paint0_linear_7_9" x1="2069.65" y1="1927.55" x2="12741.5" y2="12410.6" gradientUnits="userSpaceOnUse">
<stop stop-color="#387EB8"/>
<stop offset="1" stop-color="#366994"/>
</linearGradient>
<linearGradient id="paint1_linear_7_9" x1="3072.55" y1="3310.27" x2="14531" y2="14057.8" gradientUnits="userSpaceOnUse">
<stop stop-color="#FFE052"/>
<stop offset="1" stop-color="#FFC331"/>
</linearGradient>
<clipPath id="clip0_7_9">
<rect width="84" height="84" fill="white" transform="translate(8 8)"/>
</clipPath>
</defs>
</svg>
