<svg width="100" height="100" viewBox="0 0 100 100" fill="none" xmlns="http://www.w3.org/2000/svg">
<g clip-path="url(#clip0_1_27)">
<path d="M77.0649 37.2841C76.1935 36.9834 75.2905 36.6989 74.3608 36.4298C74.5136 35.8046 74.6539 35.1875 74.7786 34.5809C76.8255 24.62 75.4871 16.5955 70.9171 13.9535C66.535 11.4201 59.3684 14.0615 52.1305 20.3762C51.4345 20.9835 50.7365 21.6264 50.0389 22.3001C49.574 21.8543 49.1099 21.4235 48.647 21.0115C41.0615 14.2594 33.4581 11.414 28.8926 14.0636C24.5147 16.6043 23.2182 24.1482 25.0607 33.5882C25.2386 34.5 25.4466 35.4311 25.6818 36.3778C24.6057 36.6841 23.5669 37.0105 22.5729 37.3578C13.6796 40.4662 8 45.3377 8 50.3908C8 55.6096 14.0971 60.8442 23.3601 64.0182C24.0911 64.2687 24.8496 64.5055 25.6313 64.7304C25.3775 65.7543 25.1568 66.7577 24.9716 67.7363C23.2147 77.0125 24.5867 84.3781 28.953 86.9028C33.4629 89.51 41.0319 86.8301 48.4021 80.3715C48.9846 79.8609 49.5692 79.3195 50.1549 78.752C50.914 79.4848 51.6719 80.1784 52.4258 80.8289C59.5647 86.9876 66.6156 89.4745 70.9778 86.9428C75.4832 84.328 76.9475 76.4156 75.0465 66.7888C74.9013 66.0536 74.7324 65.3025 74.5426 64.538C75.0742 64.3805 75.596 64.2179 76.1048 64.0488C85.7346 60.8502 92 55.6793 92 50.3908C92 45.3194 86.1372 40.4151 77.0649 37.2841ZM74.9762 60.6341C74.5169 60.7865 74.0456 60.9339 73.5654 61.0767C72.5023 57.7028 71.0675 54.115 69.3117 50.4083C70.9872 46.7899 72.3665 43.2481 73.3999 39.896C74.2591 40.1453 75.0932 40.4082 75.8968 40.6856C83.67 43.3683 88.4115 47.3346 88.4115 50.3908C88.4115 53.6462 83.2908 57.8721 74.9762 60.6341ZM71.5262 67.4875C72.3668 71.7443 72.4869 75.593 71.9301 78.6017C71.4298 81.3051 70.4237 83.1076 69.1797 83.8295C66.5324 85.3656 60.8714 83.3689 54.7661 78.1019C54.0662 77.4981 53.3612 76.8535 52.654 76.1711C55.0208 73.576 57.3864 70.5591 59.6951 67.2085C63.7559 66.8473 67.5924 66.2567 71.0715 65.4504C71.2429 66.1434 71.3951 66.823 71.5262 67.4875ZM36.6375 83.564C34.0511 84.4797 31.9912 84.506 30.746 83.7862C28.0964 82.2541 26.9949 76.3402 28.4974 68.4072C28.6695 67.4987 28.8743 66.5655 29.1104 65.6116C32.5514 66.3744 36.3598 66.9233 40.4303 67.2541C42.7546 70.5327 45.1885 73.5464 47.6412 76.1851C47.1053 76.7037 46.5715 77.1975 46.0407 77.6627C42.7817 80.5186 39.5157 82.5449 36.6375 83.564ZM24.5206 60.6141C20.4247 59.2107 17.0422 57.3866 14.7236 55.3962C12.6402 53.6075 11.5883 51.8317 11.5883 50.3908C11.5883 47.3244 16.1485 43.4132 23.7541 40.7549C24.6769 40.4323 25.6429 40.1283 26.6455 39.8428C27.6966 43.2705 29.0754 46.8543 30.7394 50.4783C29.0539 54.1561 27.6555 57.797 26.594 61.265C25.8793 61.059 25.1869 60.8423 24.5206 60.6141ZM28.5823 32.8973C27.0037 24.8093 28.0521 18.7081 30.6904 17.1771C33.5006 15.5461 39.7147 17.8715 46.2643 23.7016C46.6829 24.0743 47.1032 24.4643 47.5247 24.8678C45.0841 27.495 42.6725 30.486 40.3689 33.7453C36.4183 34.1123 32.6367 34.702 29.1598 35.4917C28.9412 34.6101 28.7475 33.7441 28.5823 32.8973ZM64.8161 41.8668C63.9849 40.4275 63.1316 39.0223 62.2617 37.6554C64.9419 37.995 67.5097 38.4459 69.9211 38.9977C69.1972 41.3237 68.2948 43.7557 67.2326 46.2489C66.4707 44.7987 65.6648 43.3365 64.8161 41.8668ZM50.0401 27.4388C51.6952 29.2365 53.3528 31.2435 54.9832 33.4212C53.3402 33.3434 51.677 33.3029 50 33.3029C48.3388 33.3029 46.6879 33.3425 45.0551 33.4189C46.6871 31.2615 48.359 29.2571 50.0401 27.4388ZM35.1694 41.8917C34.3391 43.335 33.5481 44.7893 32.7982 46.2462C31.7532 43.7617 30.8592 41.3186 30.1289 38.9596C32.5256 38.4219 35.0813 37.9823 37.7444 37.6491C36.8622 39.0286 36.0019 40.4444 35.1694 41.8917ZM37.8211 63.3891C35.0696 63.0814 32.4755 62.6644 30.0795 62.1415C30.8214 59.7404 31.7351 57.2451 32.8022 54.7071C33.5541 56.163 34.3482 57.6179 35.1836 59.0644C36.0345 60.538 36.9162 61.9815 37.8211 63.3891ZM50.1394 73.5964C48.4386 71.7568 46.7421 69.7218 45.0853 67.5329C46.6937 67.5962 48.3335 67.6286 50 67.6286C51.7121 67.6286 53.4047 67.5899 55.0706 67.5155C53.4349 69.7439 51.7833 71.782 50.1394 73.5964ZM67.2669 54.5778C68.3896 57.1432 69.3361 59.6254 70.0876 61.9857C67.6521 62.5427 65.0225 62.9913 62.2519 63.3247C63.1239 61.9393 63.9846 60.51 64.8305 59.0396C65.6862 57.5521 66.4987 56.0623 67.2669 54.5778ZM61.7221 57.2424C60.4091 59.5249 59.061 61.7037 57.6924 63.7604C55.1998 63.9391 52.6247 64.0311 50 64.0311C47.386 64.0311 44.8432 63.9497 42.3947 63.7904C40.971 61.7067 39.5936 59.5214 38.2889 57.2621C36.9877 55.0089 35.7903 52.7366 34.7051 50.4771C35.79 48.2124 36.9845 45.9376 38.2783 43.6884L38.278 43.6889C39.5752 41.4337 40.9405 39.2591 42.3511 37.1885C44.8492 36.9991 47.4109 36.9004 49.9999 36.9004C52.6004 36.9004 55.1656 36.9999 57.663 37.1909C59.052 39.2463 60.408 41.414 61.7103 43.6694C63.0274 45.9502 64.2373 48.2098 65.3315 50.426C64.2406 52.6803 63.0334 54.9627 61.7221 57.2424ZM69.1247 17.07C71.9376 18.6962 73.0314 25.2547 71.2641 33.8548C71.1514 34.4036 71.0244 34.9625 70.8866 35.529C67.4016 34.7229 63.6173 34.123 59.6552 33.7503C57.3471 30.4552 54.9552 27.4596 52.5544 24.8662C53.1999 24.2436 53.8444 23.6501 54.4863 23.0899C60.6878 17.6795 66.4839 15.5434 69.1247 17.07ZM50 42.8711C54.1426 42.8711 57.5009 46.2377 57.5009 50.3908C57.5009 54.5437 54.1426 57.9105 50 57.9105C45.8574 57.9105 42.4991 54.5437 42.4991 50.3908C42.4991 46.2377 45.8574 42.8711 50 42.8711Z" fill="#00D8FF"/>
</g>
<defs>
<clipPath id="clip0_1_27">
<rect width="84" height="75" fill="white" transform="translate(8 13)"/>
</clipPath>
</defs>
</svg>
