<svg width="100" height="100" viewBox="0 0 100 100" fill="none" xmlns="http://www.w3.org/2000/svg">
<g clip-path="url(#clip0_1_21)">
<path d="M50 25C38.8 25 31.8 30.6 29 41.8C33.2 36.2 38.1 34.1 43.7 35.5C46.8951 36.2988 49.1788 38.6167 51.7066 41.1826C55.8245 45.3624 60.5904 50.2 71 50.2C82.2 50.2 89.2 44.6 92 33.4C87.8 39 82.9 41.1 77.3 39.7C74.1049 38.9012 71.8212 36.5833 69.2934 34.0174C65.1755 29.8376 60.4096 25 50 25ZM29 50.2C17.8 50.2 10.8 55.8 8 67C12.2 61.4 17.1 59.3 22.7 60.7C25.8951 61.4988 28.1788 63.8167 30.7066 66.3826C34.8245 70.5624 39.5904 75.4 50 75.4C61.2 75.4 68.2 69.8 71 58.6C66.8 64.2 61.9 66.3 56.3 64.9C53.1049 64.1012 50.8212 61.7833 48.2934 59.2174C44.1755 55.0376 39.4096 50.2 29 50.2Z" fill="url(#paint0_linear_1_21)"/>
</g>
<defs>
<linearGradient id="paint0_linear_1_21" x1="-589.333" y1="2508.71" x2="19993.1" y2="9647.65" gradientUnits="userSpaceOnUse">
<stop stop-color="#2298BD"/>
<stop offset="1" stop-color="#0ED7B5"/>
</linearGradient>
<clipPath id="clip0_1_21">
<rect width="84" height="50.5312" fill="white" transform="translate(8 25)"/>
</clipPath>
</defs>
</svg>
