<svg width="100" height="100" viewBox="0 0 100 100" fill="none" xmlns="http://www.w3.org/2000/svg">
<g clip-path="url(#clip0_7_8)">
<path d="M55.8164 18.817V32.6355L79.7238 46.454V32.6355L55.8164 18.817ZM8 32.6355V46.454L19.9537 53.3618V39.5447L8 32.6355ZM43.8612 39.5447L31.9075 46.454V87.9065L43.8612 94.8158V67.1803L55.8164 74.0895V60.271L43.8612 53.3618V39.5447Z" fill="#E55B2D"/>
<path d="M55.8164 18.817L19.9537 39.5447V53.3618L43.8612 39.5447V53.3618L55.8164 46.454V18.817ZM91.679 25.7263L79.7238 32.6355V46.454L91.679 39.5447V25.7263ZM67.7701 53.3618L55.8164 60.271V74.0895L67.7701 67.1803V53.3618ZM55.8164 74.0895L43.8612 67.1803V94.8158L55.8164 87.9065V74.0895Z" fill="#ED8E24"/>
<path d="M55.8164 5L8 32.6355L19.9537 39.5447L55.8164 18.817L79.7238 32.6355L91.679 25.7263L55.8164 5ZM55.8164 46.454L43.8612 53.3618L55.8164 60.271L67.7701 53.3618L55.8164 46.454Z" fill="#F8BF3C"/>
</g>
<defs>
<clipPath id="clip0_7_8">
<rect width="84" height="90" fill="white" transform="translate(8 5)"/>
</clipPath>
</defs>
</svg>
