<svg width="100" height="100" viewBox="0 0 100 100" fill="none" xmlns="http://www.w3.org/2000/svg">
<g clip-path="url(#clip0_13_69)">
<path d="M77.6439 75.1974L62.6079 50L77.6439 24.8026L85.0017 50L77.6439 75.1974ZM44.393 72.7509L25.5009 54.1974H55.607L70.643 79.3947L44.393 72.7509ZM44.393 26.8921L70.643 20.2482L55.607 45.4456H25.1439C25.1439 45.8026 44.393 26.8921 44.393 26.8921ZM82.8939 8L48.6088 16.7491L43.3588 25.4982H33.1974L8 49.9974L33.1974 74.4965H43.3588L48.2517 83.2456L82.5553 91.9947L91.6456 58.7439L86.7526 49.9947L92.0026 41.2456L82.8939 8Z" fill="black"/>
</g>
<defs>
<clipPath id="clip0_13_69">
<rect width="84" height="84" fill="white" transform="translate(8 8)"/>
</clipPath>
</defs>
</svg>
